<svg id="レイヤー_1" data-name="レイヤー 1" xmlns="http://www.w3.org/2000/svg" viewBox="0 0 761 669"><rect x="249" y="157" width="512" height="512" style="fill:#fff"/><path d="M96.66,92.66,423.34,419.34c90.21-90.21,90.21-236.47,0-326.68S186.87,2.45,96.66,92.66Z" transform="translate(249 157)"/><path d="M96.66,419.34c90.21,90.21,236.47,90.21,326.68,0L96.66,92.66C6.45,182.87,6.45,329.13,96.66,419.34Z" transform="translate(249 157)" style="fill:#01a9d9"/><path d="M426.83,72H260.55a22.43,22.43,0,0,0-20.42,13A20.47,20.47,0,0,0,245,108.46l49.87,48.18-185,178.66a20.67,20.67,0,0,0,0,30.09l35.35,34.14a22.49,22.49,0,0,0,31.16,0l185-178.65L411.25,269a21,21,0,0,0,15.58,6.36,25.84,25.84,0,0,0,8.66-1.68A21.67,21.67,0,0,0,449,254V93.41C449,81.71,439,72,426.83,72Z" transform="translate(249 157)" style="fill:#fff"/><line y2="274" style="fill:none"/></svg>